Coordinates
version=1
nRows=5
nColumns=40
inDegrees=yes

Units are S.I. units (second, meters, Newtons, ...)
Angles are in degrees.

endheader
time	pelvis_tilt	pelvis_list	pelvis_rotation	pelvis_tx	pelvis_ty	pelvis_tz	hip_flexion_r	hip_adduction_r	hip_rotation_r	knee_angle_r	knee_angle_r_beta	ankle_angle_r	subtalar_angle_r	mtp_angle_r	hip_flexion_l	hip_adduction_l	hip_rotation_l	knee_angle_l	knee_angle_l_beta	ankle_angle_l	subtalar_angle_l	mtp_angle_l	lumbar_extension	lumbar_bending	lumbar_rotation	arm_flex_r	arm_add_r	arm_rot_r	elbow_flex_r	pro_sup_r	wrist_flex_r	wrist_dev_r	arm_flex_l	arm_add_l	arm_rot_l	elbow_flex_l	pro_sup_l	wrist_flex_l	wrist_dev_l
     10.82500000	     -3.12377334	     -5.60420046	     -1.20621044	      1.03610070	      0.93608938	      0.41345185	     31.66839408	     -4.26737977	     -6.42302850	     44.26417826	     44.26417826	      0.70487035	     -8.88024792	     -2.56365392	     13.01037225	     -5.87299766	     -8.87238017	     20.59214373	     20.59214373	     12.71940471	    -10.29346768	     -1.79245983	    -11.53844801	      4.11815188	      0.64610402	      1.63337580	    -15.97794974	     -5.19146332	     25.88048949	     46.88087882	      0.00000000	      0.00000000	      4.74816899	    -17.21423778	     -5.63054558	     55.79313132	     46.11505999	      0.00000000	      0.00000000
     10.83857143	     -3.24742175	     -5.71173223	     -1.56881445	      1.03512151	      0.93612239	      0.41310200	     31.25400938	     -3.93708728	     -6.90313891	     39.86593633	     39.86593633	      0.90668375	     -7.34412202	     -2.30645338	     12.61268671	     -5.96962608	     -9.16587508	     20.30422259	     20.30422259	     12.89239532	    -10.27004851	     -1.90868882	    -11.60097928	      4.25380623	      0.61945754	      1.41901116	    -16.09396252	     -5.38567988	     25.81134331	     46.89393741	      0.00000000	      0.00000000	      5.05005041	    -17.39948469	     -5.46736928	     56.44065423	     46.11998467	      0.00000000	      0.00000000
     10.85214286	     -3.35913133	     -5.68163657	     -1.95149716	      1.03419855	      0.93600617	      0.41295694	     30.63076521	     -3.70482336	     -7.43053414	     35.08745383	     35.08745383	      0.27610336	     -5.59623963	     -4.21167579	     12.16424487	     -5.94343103	     -9.59283568	     19.95013812	     19.95013812	     12.85029026	    -10.20799408	     -2.60692934	    -11.67603921	      4.19507312	      0.92519170	      1.11315641	    -15.70881638	     -9.04879059	     25.86264193	     47.04972102	      0.00000000	      0.00000000	      5.39419990	    -18.05403099	     -3.80796744	     57.65740501	     46.24174170	      0.00000000	      0.00000000
     10.86571429	     -3.53542943	     -5.70253765	     -2.29426440	      1.03336430	      0.93575506	      0.41288572	     29.99252322	     -3.36419116	     -7.97106593	     30.33994979	     30.33994979	      0.34986121	     -3.31411524	     -3.48631623	     11.87027077	     -5.97030575	     -9.87450773	     19.77554749	     19.77554749	     13.04570458	    -10.19412903	     -2.72186262	    -11.63688394	      4.20121268	      0.84922058	      1.04215173	    -15.70621618	     -9.11269063	     25.94115433	     47.04212207	      0.00000000	      0.00000000	      5.68454177	    -18.29449434	     -3.70040039	     58.13629571	     46.25413466	      0.00000000	      0.00000000
     10.87928571	     -3.78745857	     -5.64334289	     -2.60014799	      1.03264816	      0.93532332	      0.41293009	     29.34523213	     -3.05373977	     -8.51747369	     25.60945379	     25.60945379	      0.26372382	     -0.93659887	     -2.55514563	     11.64368081	     -5.92088952	    -10.18748612	     19.55987553	     19.55987553	     13.19789684	    -10.11043407	     -2.85748917	    -11.46242151	      4.13367511	      0.75328893	      0.94004122	    -15.62572662	     -9.16944982	     26.07511717	     47.03253059	      0.00000000	      0.00000000	      5.94767860	    -18.52982595	     -3.52851636	     58.56621657	     46.25830879	      0.00000000	      0.00000000
